<?xml version="1.0" standalone="no"?>
<!DOCTYPE svg PUBLIC "-//W3C//DTD SVG 20010904//EN"
 "http://www.w3.org/TR/2001/REC-SVG-20010904/DTD/svg10.dtd">
<svg version="1.0" xmlns="http://www.w3.org/2000/svg"
 width="797.000000pt" height="797.000000pt" viewBox="0 0 797.000000 797.000000"
 preserveAspectRatio="xMidYMid meet">
<metadata>
Created by potrace 1.11, written by Peter Selinger 2001-2013
</metadata>
<g transform="translate(0.000000,797.000000) scale(0.100000,-0.100000)"
fill="#000000" stroke="none">
<path d="M10 5900 l0 -2060 1915 0 1915 0 0 -1915 0 -1915 2060 0 2060 0 0
3975 0 3975 -3975 0 -3975 0 0 -2060z m3820 5 l0 -1765 -1765 0 -1765 0 0
1765 0 1765 1765 0 1765 0 0 -1765z m3830 0 l0 -1765 -1765 0 -1765 0 0 1765
0 1765 1765 0 1765 0 0 -1765z m-10 -3830 l0 -1755 -1755 0 -1755 0 0 1755 0
1755 1755 0 1755 0 0 -1755z"/>
<path d="M1922 6932 c-14 -9 -30 -94 -188 -952 -63 -341 -68 -370 -109 -590
-20 -107 -41 -217 -45 -245 -5 -27 -15 -85 -23 -127 -8 -43 -12 -80 -9 -83 3
-3 70 -5 149 -5 139 0 144 1 153 23 8 19 50 293 50 326 0 8 55 11 185 11 102
0 185 -3 185 -7 0 -42 55 -340 63 -345 17 -11 285 -10 291 1 3 5 -13 107 -35
227 -22 121 -46 253 -54 294 -8 41 -27 147 -44 235 -16 88 -41 223 -55 300
-14 77 -33 176 -41 220 -8 44 -40 215 -70 380 -31 165 -60 310 -65 323 -9 21
-13 22 -167 22 -87 0 -164 -4 -171 -8z m197 -607 c12 -93 27 -195 32 -225 5
-30 18 -125 29 -210 11 -85 27 -198 35 -251 8 -53 15 -104 15 -113 0 -14 -17
-16 -139 -16 -77 0 -142 4 -145 8 -3 5 17 166 44 358 27 192 57 401 65 464 31
220 34 219 64 -15z"/>
<path d="M5673 6935 c-83 -23 -144 -59 -195 -113 -85 -91 -130 -218 -148 -414
-12 -143 -13 -774 0 -933 30 -376 186 -555 486 -555 140 0 255 46 327 131 69
80 97 195 97 397 l0 122 -140 0 -140 0 0 -120 c0 -158 -12 -211 -59 -260 -20
-21 -49 -42 -65 -46 -45 -11 -117 16 -143 55 -45 67 -48 109 -48 726 0 534 1
586 19 653 31 124 108 177 194 135 67 -33 92 -120 104 -368 l3 -50 119 0 120
0 8 30 c5 17 11 82 15 146 13 246 -62 391 -237 455 -63 23 -248 29 -317 9z"/>
<path d="M5425 3089 c-3 -8 -4 -459 -3 -1004 l3 -990 148 0 148 0 -1 303 -1
302 61 0 c82 0 199 25 269 58 67 31 165 126 203 197 97 182 124 562 56 784
-56 184 -176 295 -363 337 -100 22 -512 32 -520 13z m444 -235 c62 -21 114
-71 137 -133 21 -59 31 -385 15 -513 -23 -189 -99 -273 -254 -281 l-42 -2 -3
473 -2 472 49 0 c27 0 72 -7 100 -16z"/>
<path d="M227 2983 c-76 -170 -137 -312 -137 -316 0 -4 32 -7 72 -5 l72 3 25
63 26 62 149 -2 150 -3 25 -62 26 -63 77 0 76 0 -125 278 c-68 152 -131 294
-140 315 l-15 37 -72 0 -73 0 -136 -307z m257 43 c26 -60 46 -113 46 -117 0
-5 -43 -9 -95 -9 -60 0 -95 4 -95 11 0 5 16 49 36 97 20 48 40 98 45 111 5 13
11 22 14 20 2 -3 24 -54 49 -113z"/>
<path d="M860 2975 l0 -317 193 4 c182 3 195 4 247 29 77 36 124 80 157 147
23 48 28 70 28 137 0 134 -59 225 -185 284 -52 25 -65 26 -247 29 l-193 4 0
-317z m320 195 c99 -19 160 -93 160 -195 0 -138 -91 -205 -276 -205 l-64 0 0
205 0 205 64 0 c35 0 87 -5 116 -10z"/>
<path d="M1600 2975 l0 -315 70 0 70 0 0 315 0 315 -70 0 -70 0 0 -315z"/>
<path d="M1820 3235 l0 -55 100 0 100 0 0 -260 0 -260 75 0 75 0 0 260 0 260
99 0 100 0 3 37 c3 36 8 30 116 -151 l112 -188 0 -109 0 -109 70 0 70 0 0 113
0 112 95 158 c52 87 106 178 121 202 l26 45 -70 0 -69 0 -73 -122 c-40 -68
-79 -131 -85 -141 -11 -15 -23 0 -96 123 l-84 140 -342 0 -343 0 0 -55z"/>
<path d="M3070 2984 c-74 -168 -136 -309 -138 -315 -2 -5 28 -9 70 -9 l73 0
26 63 25 62 150 3 149 2 24 -61 c14 -34 30 -63 36 -66 7 -2 42 -3 78 -1 l66 3
-139 310 -139 310 -73 3 -73 2 -135 -306z m261 33 l47 -112 -95 -3 c-53 -1
-98 -1 -100 2 -3 3 16 57 43 120 26 64 50 113 53 110 3 -3 27 -56 52 -117z"/>
<path d="M589 2217 c-101 -29 -172 -88 -215 -182 -19 -39 -24 -67 -24 -131 0
-70 4 -89 30 -142 36 -71 82 -115 160 -151 74 -35 220 -37 290 -5 47 22 110
70 110 84 0 5 -20 25 -45 46 l-46 37 -22 -21 c-80 -75 -227 -65 -289 19 -106
142 -19 338 150 339 49 0 107 -21 139 -52 l22 -21 46 37 c25 21 45 41 45 46 0
14 -63 62 -109 83 -55 24 -179 32 -242 14z"/>
<path d="M1050 1906 l0 -316 70 0 70 0 0 90 0 90 104 0 c156 0 225 32 271 124
57 115 14 240 -103 297 -43 21 -63 24 -229 27 l-183 4 0 -316z m300 195 c60
-12 90 -47 90 -107 0 -87 -41 -114 -171 -114 l-79 0 0 115 0 115 58 0 c31 -1
77 -5 102 -9z"/>
<path d="M1700 1906 l0 -316 70 0 70 0 0 90 0 91 67 -3 68 -3 60 -87 60 -87
78 0 78 -1 -65 94 c-36 52 -66 98 -66 103 0 4 16 18 36 31 23 15 44 42 60 75
54 118 12 242 -103 298 -44 21 -64 24 -230 27 l-183 4 0 -316z m300 195 c61
-12 90 -47 90 -110 0 -83 -43 -111 -171 -111 l-79 0 0 115 0 115 58 0 c31 -1
77 -5 102 -9z"/>
<path d="M2280 2165 l0 -55 100 0 100 0 0 -260 0 -260 70 0 70 0 2 258 3 257
103 3 102 3 0 54 0 55 -275 0 -275 0 0 -55z"/>
<path d="M2900 1905 l0 -315 75 0 75 0 2 182 3 182 89 -148 90 -147 35 3 c34
3 39 8 119 143 46 77 87 144 92 149 7 7 10 -59 10 -177 l0 -187 65 0 65 0 0
315 0 315 -59 0 -59 0 -112 -190 c-61 -104 -115 -192 -118 -194 -4 -2 -59 83
-122 190 l-115 193 -67 1 -68 0 0 -315z"/>
<path d="M1709 1197 c-101 -29 -172 -88 -215 -182 -19 -39 -24 -67 -24 -131 0
-70 4 -89 30 -142 36 -71 82 -115 160 -151 74 -35 220 -37 290 -5 47 22 110
70 110 84 0 5 -20 25 -45 46 l-46 37 -22 -21 c-80 -75 -227 -65 -289 19 -106
142 -19 338 150 339 49 0 107 -21 139 -52 l22 -21 46 37 c25 21 45 41 45 46 0
14 -63 62 -109 83 -55 24 -179 32 -242 14z"/>
<path d="M2333 1189 c-79 -25 -161 -97 -194 -171 -33 -75 -33 -191 0 -266 89
-198 384 -256 550 -106 74 67 106 138 106 239 0 67 -4 89 -28 137 -76 154
-256 224 -434 167z m235 -136 c68 -55 77 -75 77 -168 0 -93 -9 -113 -79 -169
-35 -28 -44 -31 -111 -31 -67 0 -76 3 -111 31 -63 50 -78 78 -82 148 -6 85 10
127 64 175 52 46 68 51 148 46 46 -3 65 -9 94 -32z"/>
<path d="M2910 885 l0 -315 70 0 70 0 2 179 3 179 86 -141 c82 -136 87 -142
121 -145 l35 -3 91 153 92 153 0 -187 0 -188 75 0 75 0 0 315 0 316 -67 -3
-66 -3 -111 -187 c-61 -102 -114 -189 -117 -192 -3 -4 -59 81 -123 189 l-117
195 -59 0 -60 0 0 -315z"/>
<path d="M1086 1055 c-56 -16 -56 -15 -90 -77 -31 -55 -32 -73 -9 -145 16 -51
21 -56 78 -84 62 -31 79 -32 145 -9 60 21 64 26 83 76 30 78 30 80 13 136 -14
48 -21 56 -70 86 -59 35 -76 37 -150 17z"/>
</g>
</svg>
